<svg width="800" height="800" viewBox="0 0 800 800" fill="none" xmlns="http://www.w3.org/2000/svg">
<path fill-rule="evenodd" clip-rule="evenodd" d="M233.334 450C219.852 450 207.698 458.701 202.538 472.047C197.379 485.393 200.231 500.754 209.764 510.968L376.43 689.54C389.447 703.487 410.553 703.487 423.57 689.54L590.237 510.968C599.77 500.754 602.623 485.393 597.463 472.047C592.303 458.701 580.15 450 566.667 450H233.334Z" fill="#8B5CF6"/>
<path fill-rule="evenodd" clip-rule="evenodd" d="M233.334 350C219.852 350 207.698 341.299 202.538 327.953C197.379 314.607 200.231 299.246 209.764 289.032L376.429 110.46C389.446 96.5134 410.552 96.5134 423.569 110.46L590.235 289.032C599.768 299.246 602.622 314.607 597.462 327.953C592.302 341.299 580.148 350 566.665 350H233.334Z" fill="#404040"/>
</svg>
